<?xml version="1.0" encoding="utf-8"?>
<!-- Generator: Adobe Illustrator 16.0.0, SVG Export Plug-In . SVG Version: 6.00 Build 0)  -->
<!DOCTYPE svg PUBLIC "-//W3C//DTD SVG 1.1//EN" "http://www.w3.org/Graphics/SVG/1.1/DTD/svg11.dtd">
<svg version="1.1" id="Text" xmlns="http://www.w3.org/2000/svg" xmlns:xlink="http://www.w3.org/1999/xlink" x="0px" y="0px"
	 width="1200px" height="900px" viewBox="0 0 1200 900" enable-background="new 0 0 1200 900" xml:space="preserve">
<text transform="matrix(1.0014 0 0 1 602.3242 175.0366)" fill="#231F20" font-family="'Arial-BoldMT'" font-size="13.9995">12</text>
<text transform="matrix(1.0014 0 0 1 745.4902 212.4355)" fill="#231F20" font-family="'Arial-BoldMT'" font-size="12.9996">1</text>
<text transform="matrix(1.0014 0 0 1 849.376 314.9111)" fill="#231F20" font-family="'Arial-BoldMT'" font-size="12.9996">2</text>
<text transform="matrix(1.0014 0 0 1 885.0771 452.3115)" fill="#231F20" font-family="'Arial-BoldMT'" font-size="13.9995">3</text>
<text transform="matrix(1.0014 0 0 1 848.668 589.6797)" fill="#231F20" font-family="'Arial-BoldMT'" font-size="12.9996">4</text>
<text transform="matrix(1.0014 0 0 1 748.2891 694.2363)" fill="#231F20" font-family="'Arial-BoldMT'" font-size="12.9996">5</text>
<text transform="matrix(1.0014 0 0 1 607.5801 731.8096)" fill="#231F20" font-family="'Arial-BoldMT'" font-size="13.9995">6</text>
<text transform="matrix(1.0014 0 0 1 468.4609 695.0527)" fill="#231F20" font-family="'Arial-BoldMT'" font-size="12.9996">7</text>
<text transform="matrix(1.0014 0 0 1 368.3823 594.3447)" fill="#231F20" font-family="'Arial-BoldMT'" font-size="12.9996">8</text>
<text transform="matrix(1.0014 0 0 1 331.1563 454.8311)" fill="#231F20" font-family="'Arial-BoldMT'" font-size="13.9995">9</text>
<text transform="matrix(1.0014 0 0 1 361.1479 313.1377)" fill="#231F20" font-family="'Arial-BoldMT'" font-size="12.9996">10</text>
<text transform="matrix(1.0014 0 0 1 463.8906 211.2793)" fill="#231F20" font-family="'Arial-BoldMT'" font-size="12.9996">11</text>
<text transform="matrix(1.0014 0 0 1 634.3213 188.2461)" fill="#231F20" font-family="'ArialMT'" font-size="5.9998">1</text>
<text transform="matrix(1.0014 0 0 1 662.8271 193.3579)" fill="#231F20" font-family="'ArialMT'" font-size="5.9998">2</text>
<text transform="matrix(1.0014 0 0 1 688.9209 200.3999)" fill="#231F20" font-family="'ArialMT'" font-size="5.9998">3</text>
<text transform="matrix(0.9989 0.0715 -0.0716 0.9974 715.2744 209.1035)" fill="#231F20" font-family="'ArialMT'" font-size="5.9999">4</text>
<text transform="matrix(1.0014 0 0 1 763.5625 236.019)" fill="#231F20" font-family="'ArialMT'" font-size="5.9998">6</text>
<text transform="matrix(1.0014 0 0 1 784.5908 254.752)" fill="#231F20" font-family="'ArialMT'" font-size="5.9998">7</text>
<text transform="matrix(1.0013 0.0184 -0.0185 0.9998 804.501 273.4585)" fill="#231F20" font-family="'ArialMT'" font-size="5.9998">8</text>
<text transform="matrix(1.0014 0 0 1 821.7461 294.6504)" fill="#231F20" font-family="'ArialMT'" font-size="5.9998">9</text>
<text transform="matrix(1.0014 0 0 1 849.3311 342.6782)" fill="#231F20" font-family="'ArialMT'" font-size="5.9998">11</text>
<text transform="matrix(1.0014 0 0 1 857.6152 367.4761)" fill="#231F20" font-family="'ArialMT'" font-size="5.9998">12</text>
<text transform="matrix(1.0014 0 0 1 864.915 395.3032)" fill="#231F20" font-family="'ArialMT'" font-size="5.9998">13</text>
<text transform="matrix(1.0014 0 0 1 869.3223 422.3472)" fill="#231F20" font-family="'ArialMT'" font-size="5.9998">14</text>
<text transform="matrix(1.0014 0 0 1 868.9521 478.4326)" fill="#231F20" font-family="'ArialMT'" font-size="5.9998">16</text>
<text transform="matrix(1.0014 0 0 1 865.5449 506.3613)" fill="#231F20" font-family="'ArialMT'" font-size="5.9998">17</text>
<text transform="matrix(1.0014 0 0 1 858.9883 532.7754)" fill="#231F20" font-family="'ArialMT'" font-size="5.9998">18</text>
<text transform="matrix(1.0014 0 0 1 849.54 559.1895)" fill="#231F20" font-family="'ArialMT'" font-size="5.9998">19</text>
<text transform="matrix(1.0014 0 0 1 821.085 606.6162)" fill="#231F20" font-family="'ArialMT'" font-size="5.9998">21</text>
<text transform="matrix(1.0014 0 0 1 803.8203 629.2578)" fill="#231F20" font-family="'ArialMT'" font-size="5.9998">22</text>
<text transform="matrix(1.0014 0 0 1 783.9258 650.0107)" fill="#231F20" font-family="'ArialMT'" font-size="5.9998">23</text>
<text transform="matrix(1.0014 0 0 1 762.5117 666.3623)" fill="#231F20" font-family="'ArialMT'" font-size="5.9998">24</text>
<text transform="matrix(1.0014 0 0 1 713.3877 693.7773)" fill="#231F20" font-family="'ArialMT'" font-size="5.9998">26</text>
<text transform="matrix(1.0014 0 0 1 687.5645 703.8408)" fill="#231F20" font-family="'ArialMT'" font-size="5.9998">27</text>
<text transform="matrix(1.0014 0 0 1 661.7412 711.3877)" fill="#231F20" font-family="'ArialMT'" font-size="5.9998">28</text>
<text transform="matrix(1.0014 0 0 1 633.3994 714.79)" fill="#231F20" font-family="'ArialMT'" font-size="5.9998">29</text>
<text transform="matrix(1.0014 0 0 1 577.9731 714.3057)" fill="#231F20" font-family="'ArialMT'" font-size="5.9998">31</text>
<text transform="matrix(1.0014 0 0 1 550.2622 709.2734)" fill="#231F20" font-family="'ArialMT'" font-size="5.9998">32</text>
<text transform="matrix(1.0014 0 0 1 524.4399 703.3564)" fill="#231F20" font-family="'ArialMT'" font-size="5.9998">33</text>
<text transform="matrix(1.0014 0 0 1 496.21 694.1807)" fill="#231F20" font-family="'ArialMT'" font-size="5.9998">34</text>
<text transform="matrix(1.0014 0 0 1 449.4902 665.1055)" fill="#231F20" font-family="'ArialMT'" font-size="5.9998">36</text>
<text transform="matrix(1.0014 0 0 1 429.1909 648.4971)" fill="#231F20" font-family="'ArialMT'" font-size="5.9998">37</text>
<text transform="matrix(1.0014 0 0 1 408.5215 628.8877)" fill="#231F20" font-family="'ArialMT'" font-size="5.9998">38</text>
<text transform="matrix(1.0014 0 0 1 390.7725 606.9893)" fill="#231F20" font-family="'ArialMT'" font-size="5.9998">39</text>
<text transform="matrix(1.0014 0 0 1 363.5762 558.8203)" fill="#231F20" font-family="'ArialMT'" font-size="5.9998">41</text>
<text transform="matrix(1.0014 0 0 1 352.8379 532.6621)" fill="#231F20" font-family="'ArialMT'" font-size="5.9998">42</text>
<text transform="matrix(1.0014 0 0 1 345.6836 507.5068)" fill="#231F20" font-family="'ArialMT'" font-size="5.9998">43</text>
<text transform="matrix(1.0014 0 0 1 341.1611 480.2061)" fill="#231F20" font-family="'ArialMT'" font-size="5.9998">44</text>
<text transform="matrix(1.0014 0 0 1 340.1597 422.8296)" fill="#231F20" font-family="'ArialMT'" font-size="5.9998">46</text>
<text transform="matrix(1.0014 0 0 1 345.312 395.9331)" fill="#231F20" font-family="'ArialMT'" font-size="5.9998">47</text>
<text transform="matrix(1.0014 0 0 1 351.2383 369.6318)" fill="#231F20" font-family="'ArialMT'" font-size="5.9998">48</text>
<text transform="matrix(1.0014 0 0 1 361.0571 342.8447)" fill="#231F20" font-family="'ArialMT'" font-size="5.9998">49</text>
<text transform="matrix(1.0014 0 0 1 389.5127 295.6777)" fill="#231F20" font-family="'ArialMT'" font-size="5.9998">51</text>
<text transform="matrix(1.0014 0 0 1 407.519 273.3765)" fill="#231F20" font-family="'ArialMT'" font-size="5.9998">52</text>
<text transform="matrix(0.6599 0.7513 -0.7513 0.6599 423.583 232.1514)"><tspan x="0" y="0" font-family="'MyriadPro-Regular'" font-size="12">CONDUIT </tspan><tspan x="0" y="11" font-family="'MyriadPro-Regular'" font-size="12">AUDITIF </tspan><tspan x="-0.001" y="22" font-family="'MyriadPro-Regular'" font-size="12">EXTERNE</tspan></text>
<text transform="matrix(1.0014 0 0 1 449.2329 236.9307)" fill="#231F20" font-family="'ArialMT'" font-size="5.9998">54</text>
<text transform="matrix(1.0014 0 0 1 496.7266 208.2583)" fill="#231F20" font-family="'ArialMT'" font-size="5.9998">56</text>
<text transform="matrix(1.0014 0 0 1 524.4399 199.082)" fill="#231F20" font-family="'ArialMT'" font-size="5.9998">57</text>
<text transform="matrix(1.0014 0 0 1 549.8916 192.1641)" fill="#231F20" font-family="'ArialMT'" font-size="5.9998">58</text>
<text transform="matrix(1.0014 0 0 1 577.3438 188.1021)" fill="#231F20" font-family="'ArialMT'" font-size="5.9998">59</text>
<ellipse fill="none" stroke="#231F20" stroke-width="4" cx="609.96" cy="449.164" rx="231.791" ry="231.047"/>
<text transform="matrix(1 0 0 1 508.9663 469.0693)" font-family="'MyriadPro-Regular'" font-size="12">V</text>
<text transform="matrix(1 0 0 1 515.1133 494.751)" font-family="'MyriadPro-Regular'" font-size="12">IV</text>
<text transform="matrix(1 0 0 1 531.7793 517.9746)" font-family="'MyriadPro-Regular'" font-size="12">III</text>
<text transform="matrix(1 0 0 1 552.543 535.3223)" font-family="'MyriadPro-Regular'" font-size="12">II</text>
<text transform="matrix(1 0 0 1 576.5854 546.9336)" font-family="'MyriadPro-Regular'" font-size="12">I</text>
<text transform="matrix(1 0 0 1 626.583 348.856)" font-family="'MyriadPro-Regular'" font-size="12">1</text>
<text transform="matrix(1 0 0 1 643.7959 353.3647)" font-family="'MyriadPro-Regular'" font-size="12">2</text>
<text transform="matrix(1 0 0 1 660.3252 360.1953)" font-family="'MyriadPro-Regular'" font-size="12">3</text>
<text transform="matrix(1 0 0 1 674.2588 369.0742)" font-family="'MyriadPro-Regular'" font-size="12">4</text>
<text transform="matrix(1 0 0 1 687.5098 381.6411)" font-family="'MyriadPro-Regular'" font-size="12">5</text>
<text transform="matrix(1 0 0 1 697.7549 394.3462)" font-family="'MyriadPro-Regular'" font-size="12">6</text>
<text transform="matrix(1 0 0 1 705.2686 408.1431)" font-family="'MyriadPro-Regular'" font-size="12">7</text>
<ellipse fill="none" stroke="#231F20" stroke-width="4" cx="611.548" cy="447.242" rx="68.295" ry="68.669"/>
<text transform="matrix(1 0 0 1 590.7988 466.6484)" font-family="'MyriadPro-Regular'" font-size="60">G</text>
<polygon fill="none" stroke="#231F20" points="607.412,681.035 623.752,710.446 592.473,710.913 "/>
<polygon fill="none" stroke="#231F20" points="492.038,649.531 490.106,683.121 463.431,666.78 "/>
<polygon fill="none" stroke="#231F20" points="726.094,650.271 754.346,668.543 726.961,683.665 "/>
<polygon fill="none" stroke="#231F20" points="814.893,560.362 848.375,563.664 830.958,589.648 "/>
<polygon fill="none" stroke="#231F20" points="842.158,443.311 871.431,426.724 872.161,457.998 "/>
<polygon fill="none" stroke="#231F20" points="808.959,328.442 826.062,299.468 842.29,326.212 "/>
<polygon fill="none" stroke="#231F20" points="721.68,246.056 723.541,212.462 750.251,228.749 "/>
<polygon fill="none" stroke="#231F20" points="609.492,217.255 594.121,187.327 625.399,187.881 "/>
<polygon fill="none" stroke="#231F20" points="494.841,246.022 466.257,228.274 493.358,212.649 "/>
<polygon fill="none" stroke="#231F20" points="409.426,328.928 375.805,330.2 389.535,302.092 "/>
<polygon fill="none" stroke="#231F20" points="375.316,445.965 345.74,462.005 345.592,430.723 "/>
<polygon fill="none" stroke="#231F20" points="407.269,563.791 389.136,592.131 373.879,564.82 "/>
<ellipse fill="none" stroke="#231F20" cx="611.622" cy="447.402" rx="68.133" ry="68.503"/>
<ellipse fill="none" stroke="#231F20" cx="629.948" cy="345.028" rx="8.887" ry="8.702"/>
<ellipse fill="none" stroke="#231F20" cx="700.644" cy="390.887" rx="8.146" ry="7.869"/>
<ellipse fill="none" stroke="#231F20" cx="689.858" cy="377.769" rx="8.517" ry="8.702"/>
<ellipse fill="none" stroke="#231F20" cx="677.613" cy="365.524" rx="8.887" ry="8.332"/>
<ellipse fill="none" stroke="#231F20" cx="662.657" cy="356.596" rx="8.682" ry="8.498"/>
<ellipse fill="none" stroke="#231F20" cx="646.776" cy="349.974" rx="8.682" ry="8.65"/>
<ellipse fill="none" stroke="#231F20" cx="578.13" cy="542.801" rx="12.442" ry="11.962"/>
<ellipse fill="none" stroke="#231F20" cx="708.341" cy="404.16" rx="7.718" ry="7.399"/>
<path fill="none" stroke="#231F20" d="M703.269,413.335c0,0,20.039,39.157-7.304,80.242
	c-27.343,41.083-59.025,48.951-104.163,45.455l-3.906,14.744c0,0,66.836,17.795,114.144-42.967c0,0,37.326-48.176,14.757-101.559
	L703.269,413.335z"/>
<line fill="none" stroke="#231F20" x1="706.667" y1="423.686" x2="720.356" y2="420.723"/>
<line fill="none" stroke="#231F20" x1="710.282" y1="437.02" x2="723.023" y2="434.649"/>
<line fill="none" stroke="#231F20" x1="710.579" y1="448.872" x2="723.319" y2="449.168"/>
<line fill="none" stroke="#231F20" x1="709.097" y1="462.502" x2="722.135" y2="463.095"/>
<line fill="none" stroke="#231F20" x1="705.245" y1="475.836" x2="717.986" y2="479.095"/>
<line fill="none" stroke="#231F20" x1="698.134" y1="490.354" x2="709.394" y2="498.354"/>
<line fill="none" stroke="#231F20" x1="686.578" y1="506.947" x2="696.652" y2="516.726"/>
<line fill="none" stroke="#231F20" x1="670" y1="521.667" x2="678.874" y2="533.615"/>
<line fill="none" stroke="#231F20" x1="653.392" y1="531.837" x2="660.503" y2="544.875"/>
<line fill="none" stroke="#231F20" x1="639.557" y1="553.334" x2="636.316" y2="536.874"/>
<line fill="none" stroke="#231F20" x1="615.465" y1="539.334" x2="615.168" y2="555.542"/>
<ellipse fill="none" stroke="#231F20" cx="555.111" cy="531.17" rx="12.942" ry="12.629"/>
<ellipse fill="none" stroke="#231F20" cx="536.204" cy="513.169" rx="13.775" ry="13.444"/>
<ellipse fill="none" stroke="#231F20" cx="519.906" cy="490.65" rx="13.183" ry="13.444"/>
<ellipse fill="none" stroke="#231F20" cx="512.202" cy="463.538" rx="13.776" ry="14.185"/>
<path fill="none" stroke="#231F20" d="M500.672,455c0,0-3.479-38.538,23.661-53.333c0,0-10.438,32.689-6.611,50.237"/>
<path fill="none" stroke="#231F20" d="M518,450.333"/>
<path fill="none" stroke="#231F20" d="M620.667,342.333c-2.333,1.667-7,1-7,1c-7.395-1.694-8.334,1-8.334,1
	c-7.667-2-13,1.333-13,1.333C586.333,352,579,350,579,350c-11.667-2-15.667,6.667-15.667,6.667c-3,4-10,5.667-10,5.667
	c-4.333,1-7,10-7,10c-15.667,3.667-13.667,18.333-13.667,18.333C527.333,394,525,400.333,525,400.333l-0.472,0.98l-0.44,0.705"/>
<line fill="none" stroke="#231F20" x1="556.667" y1="223.667" x2="598" y2="380"/>
<line fill="none" stroke="#231F20" x1="678.667" y1="229" x2="645.667" y2="342.333"/>
<line fill="none" stroke="#231F20" x1="640.667" y1="356.667" x2="632.334" y2="381.667"/>
<line fill="none" stroke="#231F20" x1="778" y1="290" x2="696.667" y2="371"/>
<line fill="none" stroke="#231F20" x1="684" y1="383.333" x2="663.334" y2="403.667"/>
<line fill="none" stroke="#231F20" x1="679" y1="433.333" x2="707.667" y2="427"/>
<line fill="none" stroke="#231F20" x1="721.667" y1="423" x2="835" y2="392.333"/>
<line fill="none" stroke="#231F20" x1="676.334" y1="469.334" x2="703.667" y2="478.334"/>
<line fill="none" stroke="#231F20" x1="717.334" y1="482.334" x2="743" y2="489.334"/>
<line fill="none" stroke="#231F20" x1="657.334" y1="498" x2="675.334" y2="518.333"/>
<polyline fill="none" stroke="#231F20" points="684.667,529 747,599 765.5,620.5 "/>
<line fill="none" stroke="#231F20" x1="629.667" y1="513.667" x2="634.334" y2="537.667"/>
<path fill="none" stroke="#231F20" d="M637.667,553"/>
<line fill="none" stroke="#231F20" x1="637.667" y1="553" x2="654.334" y2="620.333"/>
<line fill="none" stroke="#231F20" x1="659.478" y1="648.069" x2="663.189" y2="657.597"/>
<line fill="none" stroke="#231F20" x1="598.333" y1="514.667" x2="591.064" y2="540.648"/>
<line fill="none" stroke="#231F20" x1="568.333" y1="501" x2="447.667" y2="616"/>
<line fill="none" stroke="#231F20" x1="384" y1="511.667" x2="546.667" y2="468.667"/>
<line fill="none" stroke="#231F20" x1="386" y1="382.333" x2="507" y2="419.333"/>
<line fill="none" stroke="#231F20" x1="519.333" y1="422.667" x2="545.333" y2="431"/>
<path fill="none" stroke="#231F20" d="M464.667,267c0,0,15.857,19.047,13,26.667c-1,2.667-8.333,9-8.333,9
	C457.667,310.333,441.667,289,441.667,289"/>
<path fill="none" d="M776,499.5c-5.905,8.07-19,1-19,1c-22.5-8.5-12.5-25.5-12.5-25.5c3.5-18.5-1.5-36-1.5-36s-2-13.5,11-4.5
	c0,0,11.5,19.5,14.5,20C768.5,454.5,791,479,776,499.5z"/>
<path fill="none" stroke="#231F20" d="M786,501.5"/>
<line fill="none" stroke="#231F20" x1="776" y1="499" x2="786" y2="502"/>
<path fill="none" stroke="#000000" d="M756.5,436c4.189,9.217,10,16.5,10,16.5C784,479,779,493,779,493c-3.5,16-19,9-19,9
	c-20-3.5-15.5-27-15.5-27c3-10-1.5-36-1.5-36S749,419.5,756.5,436z"/>
<path fill="none" stroke="#000000" d="M509,607c0,0,26,4,40,9c0,0,14.5,7.5,30.5,6.5c0,0,23.5,2,27,4c0,0,24,0,27-1.5
	c0,0,16.5-3,23.5-3.5c0,0,23-3.5,24,0c0,0,10,8,8.5,14.5c0,0,0.5,6.5,5,9.5c0,0,3.5,4.5,1,12.5"/>
<path fill="none" stroke="#000000" d="M497.5,627.5c0,0,15-3.5,31,10s32.5,9,32.5,9s15-2.5,36,4s35,3.5,38.5,0s26.5-5.5,29.5-5
	s4.5-3.5,13.5-1"/>
<path fill="none" stroke="#000000" d="M528.5,565.5c0,0,43.5,40.5,113,25.5"/>
<ellipse fill="none" stroke="#000000" cx="621.25" cy="577" rx="20.25" ry="17"/>
<line fill="none" stroke="#000000" x1="588.332" y1="549.528" x2="576" y2="588.5"/>
<line fill="none" stroke="#000000" x1="524.5" y1="353" x2="565" y2="398"/>
<text transform="matrix(1 0 0 1 709.7744 419.8931)" font-family="'MyriadPro-Regular'" font-size="12">1</text>
<text transform="matrix(1 0 0 1 712.6426 432.459)" font-family="'MyriadPro-Regular'" font-size="12">2</text>
<text transform="matrix(1 0 0 1 714.4199 445.8472)" font-family="'MyriadPro-Regular'" font-size="12">3</text>
<text transform="matrix(1 0 0 1 713.3262 459.3711)" font-family="'MyriadPro-Regular'" font-size="12">4</text>
<text transform="matrix(1 0 0 1 711.1396 473.4404)" font-family="'MyriadPro-Regular'" font-size="12">5</text>
<text transform="matrix(1 0 0 1 705.4023 489.2871)" font-family="'MyriadPro-Regular'" font-size="12">6</text>
<text transform="matrix(1 0 0 1 695.7041 507.4541)" font-family="'MyriadPro-Regular'" font-size="12">7</text>
<text transform="matrix(1 0 0 1 680.2676 523.5732)" font-family="'MyriadPro-Regular'" font-size="12">8</text>
<text transform="matrix(1 0 0 1 663.3281 537.0977)" font-family="'MyriadPro-Regular'" font-size="12">9</text>
<text transform="matrix(1 0 0 1 641.1992 545.7012)" font-family="'MyriadPro-Regular'" font-size="12">10</text>
<text transform="matrix(0.9928 0 0 1 621.2559 549.8018)" font-family="'MyriadPro-Regular'" font-size="12">11          </text>
<text transform="matrix(1 0 0 1 595.7085 551.7139)" font-family="'MyriadPro-Regular'" font-size="12">12</text>
<text transform="matrix(1 0 0 1 597.8853 238.7783)" font-family="'MyriadPro-Regular'" font-size="12">VERTEX</text>
<text transform="matrix(1 0 0 1 595.9414 259.5181)" font-family="'MyriadPro-Regular'" font-size="12">CORTEX</text>
<text transform="matrix(1 0 0 1 583.5 281)" font-family="'MyriadPro-Regular'" font-size="12">FRONT. OCCIP</text>
<text transform="matrix(1 0 0 1 591 303.5)" font-family="'MyriadPro-Regular'" font-size="12">DIENCEPM.</text>
<text transform="matrix(1 0 0 1 591.5 328.5)" font-family="'MyriadPro-Regular'" font-size="12">HYPOPHY.</text>
<text transform="matrix(0.3237 -0.9462 0.9462 0.3237 668.2256 318.6855)" font-family="'MyriadPro-Regular'" font-size="12">CERVELET</text>
<text transform="matrix(0.4227 -0.9063 0.9063 0.4227 672.9512 334.9297)" font-family="'MyriadPro-Regular'" font-size="12">DREILLE INTERNE</text>
<text transform="matrix(0.4736 -0.8808 0.8808 0.4736 685.8779 335.335)" font-family="'MyriadPro-Regular'" font-size="12">TRONC CEREBR.</text>
<text transform="matrix(0.5986 -0.801 0.801 0.5986 706.8506 334.584)" font-family="'MyriadPro-Regular'" font-size="12">NUQUE</text>
<text transform="matrix(0.7286 -0.685 0.685 0.7286 741.3604 320.1016)" font-family="'MyriadPro-Regular'" font-size="12">FACE</text>
<text transform="matrix(0.7821 -0.6232 0.6232 0.7821 734.3057 358.3813)" font-family="'MyriadPro-Regular'" font-size="12">LANGUE</text>
<text transform="matrix(0.854 -0.5202 0.5202 0.854 740.6553 373.937)" font-family="'MyriadPro-Regular'" font-size="12">THYROIDE</text>
<text transform="matrix(0.9018 -0.4322 0.4322 0.9018 752.2158 389.6338)" font-family="'MyriadPro-Regular'" font-size="12">MEMBRE</text>
<text transform="matrix(0.9554 -0.2952 0.2952 0.9554 755.2451 410.0225)" font-family="'MyriadPro-Regular'" font-size="12">SUPERIEUR</text>
<path fill="none" d="M841.5,465.5c-15-48-55.5-52.5-55.5-52.5c-46-8-29.5,18-29.5,18s5,6.5,20,18c0,0,21.5,14.5,4.5,67.5l44,18.5"/>
<path fill="none" d="M769,429.5c0,0,40,19,29.5,81.5"/>
<text transform="matrix(0.8249 0.5652 -0.5652 0.8249 771.8184 431.1133)"><tspan x="0" y="0" font-family="'MyriadPro-Regular'" font-size="12"> </tspan><tspan x="3.065" y="0.017" font-family="'MyriadPro-Regular'" font-size="12" rotate="3.492"> </tspan><tspan x="6.115" y="0.22" font-family="'MyriadPro-Regular'" font-size="12" rotate="6.674"> </tspan><tspan x="9.153" y="0.589" font-family="'MyriadPro-Regular'" font-size="12" rotate="9.702"> </tspan><tspan x="12.156" y="1.116" font-family="'MyriadPro-Regular'" font-size="12" rotate="12.628"> </tspan><tspan x="15.132" y="1.796" font-family="'MyriadPro-Regular'" font-size="12" rotate="15.498"> </tspan><tspan x="18.082" y="2.628" font-family="'MyriadPro-Regular'" font-size="12" rotate="18.331"> </tspan><tspan x="21.008" y="3.539" font-family="'MyriadPro-Regular'" font-size="12" rotate="22.843">P</tspan><tspan x="27.394" y="6.208" font-family="'MyriadPro-Regular'" font-size="12" rotate="29.704">O</tspan><tspan x="34.989" y="10.602" font-family="'MyriadPro-Regular'" font-size="12" rotate="36.712">U</tspan><tspan x="41.657" y="15.554" font-family="'MyriadPro-Regular'" font-size="12" rotate="43.671">M</tspan><tspan x="48.947" y="22.622" font-family="'MyriadPro-Regular'" font-size="12" rotate="50.03">O</tspan><tspan x="54.578" y="29.403" font-family="'MyriadPro-Regular'" font-size="12" rotate="55.142">N</tspan></text>
<text transform="matrix(0.9129 0.4081 -0.4081 0.9129 740.0859 512.4873)" font-family="'MyriadPro-Regular'" font-size="12">DIAPHRAGME</text>
<text transform="matrix(0.853 0.5219 -0.5219 0.853 710.0059 515.7578)" font-family="'MyriadPro-Regular'" font-size="12">CARDIA</text>
<path fill="none" d="M732.073,422.389c0,0,10.429,37.253-10.146,74.774"/>
<text transform="matrix(0.1545 0.988 -0.988 0.1545 732.8672 425.8232)"><tspan x="0" y="0" font-family="'MyriadPro-Regular'" font-size="10">O</tspan><tspan x="7.322" y="0.048" font-family="'MyriadPro-Regular'" font-size="10" rotate="3.528">E</tspan><tspan x="12.658" y="0.388" font-family="'MyriadPro-Regular'" font-size="10" rotate="6.283">S</tspan><tspan x="17.997" y="0.962" font-family="'MyriadPro-Regular'" font-size="10" rotate="9.486">O</tspan><tspan x="25.209" y="2.202" font-family="'MyriadPro-Regular'" font-size="10" rotate="12.787">P</tspan><tspan x="30.814" y="3.468" font-family="'MyriadPro-Regular'" font-size="10" rotate="16.046">H</tspan><tspan x="37.498" y="5.41" font-family="'MyriadPro-Regular'" font-size="10" rotate="19.596">A</tspan><tspan x="43.665" y="7.614" font-family="'MyriadPro-Regular'" font-size="10" rotate="23.212">G</tspan><tspan x="49.972" y="10.358" font-family="'MyriadPro-Regular'" font-size="10" rotate="26.566">E</tspan></text>
<path fill="none" d="M725,433c0,0,4.5,25-5.5,47"/>
<text transform="matrix(0.1023 0.9948 -0.9948 0.1023 725.3828 435.6445)"><tspan x="0" y="0" font-family="'MyriadPro-Regular'" font-size="12"> </tspan><tspan x="3.07" y="0.011" font-family="'MyriadPro-Regular'" font-size="12" rotate="1.927"> </tspan><tspan x="6.137" y="0.083" font-family="'MyriadPro-Regular'" font-size="10" rotate="4.716">A</tspan><tspan x="12.664" y="0.622" font-family="'MyriadPro-Regular'" font-size="10" rotate="8.692">O</tspan><tspan x="19.88" y="1.763" font-family="'MyriadPro-Regular'" font-size="10" rotate="12.697">R</tspan><tspan x="25.555" y="3.061" font-family="'MyriadPro-Regular'" font-size="10" rotate="16.451">T</tspan><tspan x="30.717" y="4.597" font-family="'MyriadPro-Regular'" font-size="10" rotate="20.383">E</tspan></text>
<text transform="matrix(0.2219 0.9751 -0.9751 0.2219 750.0215 448.5273)" font-family="'MyriadPro-Regular'" font-size="12">COEUR</text>
<text transform="matrix(0.6585 -0.7526 0.7526 0.6585 765.1221 601.8789)" font-family="'MyriadPro-Regular'" font-size="12">ESTOMAC</text>
<text transform="matrix(0.6255 0.7802 -0.7802 0.6255 685.3984 544.6533)" font-family="'MyriadPro-Regular'" font-size="12">PYLORE</text>
<text transform="matrix(0.5215 0.8533 -0.8533 0.5215 673.3877 545.3945)"><tspan x="0" y="0" font-family="'MyriadPro-Regular'" font-size="12">PAN- </tspan><tspan x="0" y="9" font-family="'MyriadPro-Regular'" font-size="12">CREAS</tspan></text>
<text transform="matrix(0.5676 0.8233 -0.8233 0.5676 697.5137 594.2383)" font-family="'MyriadPro-Regular'" font-size="12">RATE</text>
<text transform="matrix(0.9592 0.2827 -0.2827 0.9592 539.3223 630.8838)" font-family="'MyriadPro-Regular'" font-size="12">COLON </text>
<text transform="matrix(0.9986 -0.0535 0.0535 0.9986 596.2744 644.7822)" font-family="'MyriadPro-Regular'" font-size="12">TRANSVERSE.</text>
<text transform="matrix(0.8934 0.4492 -0.4492 0.8934 546.3779 562.7031)" font-family="'MyriadPro-Regular'" font-size="12">REIN</text>
<path fill="none" d="M524.5,584c0,0,58.5,35.5,120.5,22.5"/>
<text transform="matrix(0.877 0.4805 -0.4805 0.877 526.1421 584.9561)"><tspan x="0" y="0" font-family="'MyriadPro-Regular'" font-size="12"> </tspan><tspan x="3.064" y="-0.008" font-family="'MyriadPro-Regular'" font-size="12" rotate="-1.204"> </tspan><tspan x="6.134" y="-0.076" font-family="'MyriadPro-Regular'" font-size="12" rotate="-2.226"> </tspan><tspan x="9.181" y="-0.199" font-family="'MyriadPro-Regular'" font-size="12" rotate="-3.154"> </tspan><tspan x="12.254" y="-0.373" font-family="'MyriadPro-Regular'" font-size="12" rotate="-4.039"> </tspan><tspan x="15.294" y="-0.592" font-family="'MyriadPro-Regular'" font-size="12" rotate="-4.885"> </tspan><tspan x="18.333" y="-0.855" font-family="'MyriadPro-Regular'" font-size="12" rotate="-5.713"> </tspan><tspan x="21.376" y="-1.163" font-family="'MyriadPro-Regular'" font-size="12" rotate="-6.533"> </tspan><tspan x="24.438" y="-1.51" font-family="'MyriadPro-Regular'" font-size="12" rotate="-7.605">J</tspan><tspan x="29.341" y="-2.161" font-family="'MyriadPro-Regular'" font-size="12" rotate="-9.114">E</tspan><tspan x="35.676" y="-3.195" font-family="'MyriadPro-Regular'" font-size="12" rotate="-10.645">J</tspan><tspan x="40.555" y="-4.093" font-family="'MyriadPro-Regular'" font-size="12" rotate="-12.463">U</tspan><tspan x="48.625" y="-5.884" font-family="'MyriadPro-Regular'" font-size="12" rotate="-14.835">N</tspan><tspan x="56.759" y="-8.045" font-family="'MyriadPro-Regular'" font-size="12" rotate="-17.4">O</tspan><tspan x="65.12" y="-10.716" font-family="'MyriadPro-Regular'" font-size="12" rotate="-19.428">-</tspan><tspan x="69.077" y="-12.123" font-family="'MyriadPro-Regular'" font-size="12" rotate="-20.6"> </tspan><tspan x="71.955" y="-13.207" font-family="'MyriadPro-Regular'" font-size="12" rotate="-21.671">I</tspan><tspan x="75.104" y="-14.447" font-family="'MyriadPro-Regular'" font-size="12" rotate="-23.296">L</tspan><tspan x="80.778" y="-16.896" font-family="'MyriadPro-Regular'" font-size="12" rotate="-25.519">E</tspan><tspan x="86.576" y="-19.645" font-family="'MyriadPro-Regular'" font-size="12" rotate="-28.328">O</tspan><tspan x="94.3" y="-23.828" font-family="'MyriadPro-Regular'" font-size="12" rotate="-31.678">N</tspan></text>
<path fill="none" d="M514.5,595.5c0,0,58,41,134.5,23.5"/>
<text transform="matrix(0.8792 0.4764 -0.4764 0.8792 523.2544 600.8184)"><tspan x="0" y="0" font-family="'MyriadPro-Regular'" font-size="12"> </tspan><tspan x="3.068" y="-0.005" font-family="'MyriadPro-Regular'" font-size="12" rotate="-1.088"> </tspan><tspan x="6.107" y="-0.029" font-family="'MyriadPro-Regular'" font-size="12" rotate="-2.965">G</tspan><tspan x="14.382" y="-0.476" font-family="'MyriadPro-Regular'" font-size="12" rotate="-5.51">A</tspan><tspan x="22.21" y="-1.238" font-family="'MyriadPro-Regular'" font-size="12" rotate="-7.979">U</tspan><tspan x="30.412" y="-2.406" font-family="'MyriadPro-Regular'" font-size="12" rotate="-10.37">C</tspan><tspan x="37.756" y="-3.752" font-family="'MyriadPro-Regular'" font-size="12" rotate="-12.773">H</tspan><tspan x="45.889" y="-5.626" font-family="'MyriadPro-Regular'" font-size="12" rotate="-15.043">E</tspan><tspan x="52.073" y="-7.316" font-family="'MyriadPro-Regular'" font-size="12" rotate="-16.51"> </tspan></text>
<path fill="none" d="M481.637,636.862c0,0,42.5,28,68.5,30"/>
<text transform="matrix(0.8553 0.5181 -0.5181 0.8553 487.4424 640.5166)"><tspan x="0" y="0" font-family="'MyriadPro-Regular'" font-size="12"> </tspan><tspan x="3.06" y="-0.002" font-family="'MyriadPro-Regular'" font-size="12" rotate="-0.532"> </tspan><tspan x="6.132" y="-0.023" font-family="'MyriadPro-Regular'" font-size="12" rotate="-1.349">S</tspan><tspan x="12.551" y="-0.189" font-family="'MyriadPro-Regular'" font-size="12" rotate="-2.203">I</tspan><tspan x="15.928" y="-0.301" font-family="'MyriadPro-Regular'" font-size="12" rotate="-3.286">G</tspan><tspan x="24.199" y="-0.763" font-family="'MyriadPro-Regular'" font-size="12" rotate="-5.248">M</tspan><tspan x="34.322" y="-1.71" font-family="'MyriadPro-Regular'" font-size="12" rotate="-7.768">O</tspan><tspan x="43.017" y="-2.951" font-family="'MyriadPro-Regular'" font-size="12" rotate="-9.818">I</tspan><tspan x="46.339" y="-3.475" font-family="'MyriadPro-Regular'" font-size="12" rotate="-12.31">D</tspan><tspan x="54.661" y="-5.334" font-family="'MyriadPro-Regular'" font-size="12" rotate="-16.577">E</tspan></text>
<path fill="none" d="M559.575,669.15c0,0,64,16.5,131-10.5"/>
<text transform="matrix(0.9856 0.169 -0.169 0.9856 567.2046 670.7334)"><tspan x="0" y="0" font-family="'MyriadPro-Regular'" font-size="12"> </tspan><tspan x="3.033" y="0.022" font-family="'MyriadPro-Regular'" font-size="12" rotate="-1.516">C</tspan><tspan x="10.515" y="-0.177" font-family="'MyriadPro-Regular'" font-size="12" rotate="-3.616">O</tspan><tspan x="19.287" y="-0.761" font-family="'MyriadPro-Regular'" font-size="12" rotate="-5.429">L</tspan><tspan x="25.453" y="-1.335" font-family="'MyriadPro-Regular'" font-size="12" rotate="-7.194">O</tspan><tspan x="34.14" y="-2.444" font-family="'MyriadPro-Regular'" font-size="12" rotate="-9.193">N</tspan><tspan x="42.451" y="-3.826" font-family="'MyriadPro-Regular'" font-size="12" rotate="-10.536"> </tspan><tspan x="45.463" y="-4.36" font-family="'MyriadPro-Regular'" font-size="12" rotate="-11.898">D</tspan><tspan x="53.788" y="-6.138" font-family="'MyriadPro-Regular'" font-size="12" rotate="-13.676">E</tspan><tspan x="60.009" y="-7.659" font-family="'MyriadPro-Regular'" font-size="12" rotate="-15.225">S</tspan><tspan x="66.226" y="-9.35" font-family="'MyriadPro-Regular'" font-size="12" rotate="-16.938">C</tspan><tspan x="73.365" y="-11.541" font-family="'MyriadPro-Regular'" font-size="12" rotate="-18.677">E</tspan><tspan x="79.461" y="-13.592" font-family="'MyriadPro-Regular'" font-size="12" rotate="-20.577">N</tspan><tspan x="87.337" y="-16.559" font-family="'MyriadPro-Regular'" font-size="12" rotate="-22.794">D</tspan><tspan x="95.178" y="-19.869" font-family="'MyriadPro-Regular'" font-size="12" rotate="-24.989">A</tspan><tspan x="102.29" y="-23.19" font-family="'MyriadPro-Regular'" font-size="12" rotate="-27.217">N</tspan><tspan x="109.756" y="-27.059" font-family="'MyriadPro-Regular'" font-size="12" rotate="-29.299">T</tspan></text>
<text transform="matrix(0.6357 -0.7719 0.7719 0.6357 482.2988 610.8691)" font-family="'MyriadPro-Regular'" font-size="12">URETERE</text>
<text transform="matrix(0.9565 -0.2918 0.2918 0.9565 412.8418 522.1699)" font-family="'MyriadPro-Regular'" font-size="12">UTERUS</text>
<text transform="matrix(0.907 -0.4211 0.4211 0.907 417.1924 542.166)" font-family="'MyriadPro-Regular'" font-size="12">OU PROSTATE</text>
<text transform="matrix(0.8377 -0.5461 0.5461 0.8377 428.8828 567.459)" font-family="'MyriadPro-Regular'" font-size="12">OVAIRE</text>
<text transform="matrix(0.7926 -0.6097 0.6097 0.7926 437.9453 581.4092)" font-family="'MyriadPro-Regular'" font-size="12">OU TESTICULE</text>
<text transform="matrix(0.7264 -0.6873 0.6873 0.7264 453.9307 598.9648)" font-family="'MyriadPro-Regular'" font-size="12">VESSIE</text>
<text transform="matrix(0.9865 0.1636 -0.1636 0.9865 412.2471 422.8975)" font-family="'MyriadPro-Regular'" font-size="12">MEMBRE</text>
<text transform="matrix(0.995 -0.0999 0.0999 0.995 410.5137 474.1035)" font-family="'MyriadPro-Regular'" font-size="12">INFERIEUR</text>
<text transform="matrix(0.9522 0.3054 -0.3054 0.9522 421.4946 385.2217)" font-family="'MyriadPro-Regular'" font-size="12">RECTUM</text>
<text transform="matrix(0.8397 0.543 -0.543 0.8397 429.1338 332.3682)" font-family="'MyriadPro-Regular'" font-size="12">PAROIDE</text>
<text transform="matrix(0.8703 0.4926 -0.4926 0.8703 413.9673 344.6797)" font-family="'MyriadPro-Regular'" font-size="12">ORGANES GENITAUX</text>
<text transform="matrix(0.9023 0.4311 -0.4311 0.9023 427.418 366.71)" font-family="'MyriadPro-Regular'" font-size="12">EXTERNES</text>
<text transform="matrix(0.6774 0.7356 -0.7356 0.6774 486.7993 319.0547)" font-family="'MyriadPro-Regular'" font-size="12">TYMPAN</text>
<text transform="matrix(0.7997 0.6003 -0.6003 0.7997 435.8818 313.6279)" font-family="'MyriadPro-Regular'" font-size="12">LARYNX</text>
<text transform="matrix(0.5564 0.8309 -0.8309 0.5564 492.708 274.0762)" font-family="'MyriadPro-Regular'" font-size="12">MAXIL. INF.</text>
<text transform="matrix(0.782 0.6233 -0.6233 0.782 484.1831 349.9248)" font-family="'MyriadPro-Regular'" font-size="12">PHARYNX</text>
<text transform="matrix(0.482 0.8762 -0.8762 0.482 511.0635 262.1328)" font-family="'MyriadPro-Regular'" font-size="12">MAXIL. SUPER.</text>
<text transform="matrix(0.2797 0.9601 -0.9601 0.2797 556.5635 265.3711)" font-family="'MyriadPro-Regular'" font-size="12">FRONT</text>
<text transform="matrix(0.8766 0 0 1 604.4971 575.2275)"><tspan x="0" y="0" font-family="'MyriadPro-Regular'" font-size="10.7208">SUR-</tspan><tspan x="0" y="9.68" font-family="'MyriadPro-Regular'" font-size="10.7208">RENALE</tspan></text>
<text transform="matrix(0.3317 0.9434 -0.9434 0.3317 534.8359 252.5605)" font-family="'MyriadPro-Regular'" font-size="12">NEZ       OEIL</text>
<text transform="matrix(0.8462 0.5329 -0.5329 0.8462 806.0957 408.9385)" font-family="'MyriadPro-Regular'" font-size="12">SEIN</text>
<text transform="matrix(0.9263 -0.3768 0.3768 0.9263 708.7148 652.9814)" font-family="'MyriadPro-Regular'" font-size="12">FOIE</text>
<path fill="none" stroke="#000000" d="M692,665.667C702.666,656.001,709,630,709,630s14.666,8.334,41,2.667"/>
<text transform="matrix(0.4189 0.908 -0.908 0.4189 653.5137 550.6904)"><tspan x="0" y="0" font-family="'MyriadPro-Regular'" font-size="12">ANGLE DUODENO-</tspan><tspan x="0" y="11" font-family="'MyriadPro-Regular'" font-size="12">JEJUNAL</tspan></text>
<text transform="matrix(1 0 0 1 458.1665 249.3335)" font-family="'MyriadPro-Regular'" font-size="12">               </text>
</svg>
