<?xml version="1.0" encoding="utf-8"?>
<!-- Generator: Adobe Illustrator 16.0.0, SVG Export Plug-In . SVG Version: 6.00 Build 0)  -->
<!DOCTYPE svg PUBLIC "-//W3C//DTD SVG 1.1//EN" "http://www.w3.org/Graphics/SVG/1.1/DTD/svg11.dtd">
<svg version="1.1" id="Text" xmlns="http://www.w3.org/2000/svg" xmlns:xlink="http://www.w3.org/1999/xlink" x="0px" y="0px"
	 width="1200px" height="900px" viewBox="0 0 1200 900" enable-background="new 0 0 1200 900" xml:space="preserve">
<path fill="none" stroke="#231F20" d="M738.85,287.708l32.092,5.303c-16.928,22.439-29.525,9.055-29.525,9.055
	c-12.598-11.022,8.661-29.919,8.661-29.919"/>
<text transform="matrix(0.9977 0 0 1 588.1528 167.9028)" fill="#231F20" font-family="'Arial-BoldMT'" font-size="14.0851">12</text>
<text transform="matrix(0.9977 0 0 1 731.6475 205.5313)" fill="#231F20" font-family="'Arial-BoldMT'" font-size="13.0791">1</text>
<text transform="matrix(0.9977 0 0 1 835.7666 308.6318)" fill="#231F20" font-family="'Arial-BoldMT'" font-size="13.0791">2</text>
<text transform="matrix(0.9977 0 0 1 871.5537 446.874)" fill="#231F20" font-family="'Arial-BoldMT'" font-size="14.0851">3</text>
<text transform="matrix(0.9977 0 0 1 835.0576 585.083)" fill="#231F20" font-family="'Arial-BoldMT'" font-size="13.0791">4</text>
<text transform="matrix(0.9977 0 0 1 734.4521 690.2754)" fill="#231F20" font-family="'Arial-BoldMT'" font-size="13.0791">5</text>
<text transform="matrix(0.9977 0 0 1 593.418 728.0811)" fill="#231F20" font-family="'Arial-BoldMT'" font-size="14.0851">6</text>
<text transform="matrix(0.9977 0 0 1 453.9819 691.0977)" fill="#231F20" font-family="'Arial-BoldMT'" font-size="13.0791">7</text>
<text transform="matrix(0.9977 0 0 1 353.6748 589.7773)" fill="#231F20" font-family="'Arial-BoldMT'" font-size="13.0791">8</text>
<text transform="matrix(0.9977 0 0 1 316.3618 449.4102)" fill="#231F20" font-family="'Arial-BoldMT'" font-size="14.0851">9</text>
<text transform="matrix(0.9977 0 0 1 346.4209 306.8472)" fill="#231F20" font-family="'Arial-BoldMT'" font-size="13.0791">10</text>
<text transform="matrix(0.9977 0 0 1 449.4014 204.3647)" fill="#231F20" font-family="'Arial-BoldMT'" font-size="13.0791">11</text>
<text transform="matrix(0.9977 0 0 1 620.2188 181.1929)" fill="#231F20" font-family="'ArialMT'" font-size="6.0365">1</text>
<text transform="matrix(0.9977 0 0 1 648.7969 186.3359)" fill="#231F20" font-family="'ArialMT'" font-size="6.0365">2</text>
<text transform="matrix(0.9977 0 0 1 674.9473 193.4209)" fill="#231F20" font-family="'ArialMT'" font-size="6.0365">3</text>
<text transform="matrix(0.9951 0.0715 -0.0714 0.9975 701.3535 202.1719)" fill="#231F20" font-family="'ArialMT'" font-size="6.0364">4</text>
<text transform="matrix(0.9977 0 0 1 749.7607 229.2583)" fill="#231F20" font-family="'ArialMT'" font-size="6.0365">6</text>
<text transform="matrix(0.9977 0 0 1 770.8398 248.1045)" fill="#231F20" font-family="'ArialMT'" font-size="6.0365">7</text>
<text transform="matrix(0.9977 0 0 1 808.0801 288.2485)" fill="#231F20" font-family="'ArialMT'" font-size="6.0365">9</text>
<text transform="matrix(0.9977 0 0 1 835.7256 336.5684)" fill="#231F20" font-family="'ArialMT'" font-size="6.0365">11</text>
<text transform="matrix(0.9977 0 0 1 844.0264 361.519)" fill="#231F20" font-family="'ArialMT'" font-size="6.0365">12</text>
<text transform="matrix(0.9977 0 0 1 851.3447 389.5151)" fill="#231F20" font-family="'ArialMT'" font-size="6.0365">13</text>
<text transform="matrix(0.9977 0 0 1 855.7627 416.7251)" fill="#231F20" font-family="'ArialMT'" font-size="6.0365">14</text>
<text transform="matrix(0.9977 0 0 1 855.3916 473.1563)" fill="#231F20" font-family="'ArialMT'" font-size="6.0365">16</text>
<text transform="matrix(0.9977 0 0 1 851.9795 501.2549)" fill="#231F20" font-family="'ArialMT'" font-size="6.0365">17</text>
<text transform="matrix(0.9977 0 0 1 845.4082 527.8301)" fill="#231F20" font-family="'ArialMT'" font-size="6.0365">18</text>
<text transform="matrix(0.9977 0 0 1 835.9326 554.4063)" fill="#231F20" font-family="'ArialMT'" font-size="6.0365">19</text>
<text transform="matrix(0.9977 0 0 1 807.4189 602.1182)" fill="#231F20" font-family="'ArialMT'" font-size="6.0365">21</text>
<text transform="matrix(0.9977 0 0 1 790.1123 624.8994)" fill="#231F20" font-family="'ArialMT'" font-size="6.0365">22</text>
<text transform="matrix(0.9977 0 0 1 770.1709 645.7813)" fill="#231F20" font-family="'ArialMT'" font-size="6.0365">23</text>
<text transform="matrix(0.9977 0 0 1 748.71 662.2334)" fill="#231F20" font-family="'ArialMT'" font-size="6.0365">24</text>
<text transform="matrix(0.9977 0 0 1 699.4707 689.8154)" fill="#231F20" font-family="'ArialMT'" font-size="6.0365">26</text>
<text transform="matrix(0.9977 0 0 1 673.5869 699.9404)" fill="#231F20" font-family="'ArialMT'" font-size="6.0365">27</text>
<text transform="matrix(0.9977 0 0 1 647.709 707.5352)" fill="#231F20" font-family="'ArialMT'" font-size="6.0365">28</text>
<text transform="matrix(0.9977 0 0 1 619.3047 710.957)" fill="#231F20" font-family="'ArialMT'" font-size="6.0365">29</text>
<text transform="matrix(0.9977 0 0 1 563.7441 710.4707)" fill="#231F20" font-family="'ArialMT'" font-size="6.0365">31</text>
<text transform="matrix(0.9977 0 0 1 535.9712 705.4072)" fill="#231F20" font-family="'ArialMT'" font-size="6.0365">32</text>
<text transform="matrix(0.9977 0 0 1 510.0884 699.4531)" fill="#231F20" font-family="'ArialMT'" font-size="6.0365">33</text>
<text transform="matrix(0.9977 0 0 1 481.7939 690.2197)" fill="#231F20" font-family="'ArialMT'" font-size="6.0365">34</text>
<text transform="matrix(0.9977 0 0 1 434.9683 660.9658)" fill="#231F20" font-family="'ArialMT'" font-size="6.0365">36</text>
<text transform="matrix(0.9977 0 0 1 414.6206 644.2568)" fill="#231F20" font-family="'ArialMT'" font-size="6.0365">37</text>
<text transform="matrix(0.9977 0 0 1 393.9058 624.5283)" fill="#231F20" font-family="'ArialMT'" font-size="6.0365">38</text>
<text transform="matrix(0.9977 0 0 1 376.1143 602.498)" fill="#231F20" font-family="'ArialMT'" font-size="6.0365">39</text>
<text transform="matrix(0.9977 0 0 1 348.8564 554.0352)" fill="#231F20" font-family="'ArialMT'" font-size="6.0365">41</text>
<text transform="matrix(0.9977 0 0 1 338.0933 527.7168)" fill="#231F20" font-family="'ArialMT'" font-size="6.0365">42</text>
<text transform="matrix(0.9977 0 0 1 330.9224 502.4023)" fill="#231F20" font-family="'ArialMT'" font-size="6.0365">43</text>
<text transform="matrix(0.9977 0 0 1 326.3906 474.9385)" fill="#231F20" font-family="'ArialMT'" font-size="6.0365">44</text>
<text transform="matrix(0.9977 0 0 1 325.3862 417.2109)" fill="#231F20" font-family="'ArialMT'" font-size="6.0365">46</text>
<text transform="matrix(0.9977 0 0 1 330.5513 390.1509)" fill="#231F20" font-family="'ArialMT'" font-size="6.0365">47</text>
<text transform="matrix(0.9977 0 0 1 336.4902 363.6875)" fill="#231F20" font-family="'ArialMT'" font-size="6.0365">48</text>
<text transform="matrix(0.9977 0 0 1 346.3325 336.7378)" fill="#231F20" font-family="'ArialMT'" font-size="6.0365">49</text>
<text transform="matrix(0.9977 0 0 1 374.8521 289.2827)" fill="#231F20" font-family="'ArialMT'" font-size="6.0365">51</text>
<text transform="matrix(0.9977 0 0 1 392.9004 266.8433)" fill="#231F20" font-family="'ArialMT'" font-size="6.0365">52</text>
<text transform="matrix(0.9977 0 0 1 414.25 246.8877)" fill="#231F20" font-family="'ArialMT'" font-size="6.0365">53</text>
<text transform="matrix(0.9977 0 0 1 434.7095 230.1753)" fill="#231F20" font-family="'ArialMT'" font-size="6.0365">54</text>
<text transform="matrix(0.9977 0 0 1 482.3115 201.3271)" fill="#231F20" font-family="'ArialMT'" font-size="6.0365">56</text>
<text transform="matrix(0.9977 0 0 1 510.0884 192.0942)" fill="#231F20" font-family="'ArialMT'" font-size="6.0365">57</text>
<text transform="matrix(0.9977 0 0 1 535.5996 185.1348)" fill="#231F20" font-family="'ArialMT'" font-size="6.0365">58</text>
<text transform="matrix(0.9977 0 0 1 563.1143 181.0498)" fill="#231F20" font-family="'ArialMT'" font-size="6.0365">59</text>
<path fill="none" stroke="#231F20" stroke-width="4" d="M662.791,225.682c97.259,27.634,168.405,116.106,168.405,220.976
	c0,126.983-104.315,229.924-232.993,229.924c-128.682,0-232.998-102.941-232.998-229.924c0-126.984,104.316-229.925,232.998-229.925
	C620.612,216.733,642.282,219.855,662.791,225.682z"/>
<polygon fill="none" stroke="#231F20" points="597.148,216.247 582.414,187.778 612.037,188.119 "/>
<polygon fill="none" stroke="#231F20" points="712.734,648.058 740.086,664.776 714.572,679.831 "/>
<polygon fill="none" stroke="#231F20" points="363.947,443.723 335.853,459.16 335.455,429.539 "/>
<polygon fill="none" stroke="#231F20" points="396.284,328.193 364.23,327.675 378.569,301.751 "/>
<polygon fill="none" stroke="#231F20" points="478.792,645.803 477.454,677.832 451.906,662.834 "/>
<polygon fill="none" stroke="#231F20" points="394.817,561.577 377.819,588.756 363.027,563.088 "/>
<polygon fill="none" stroke="#231F20" points="596.152,677.367 611.007,705.775 581.383,705.561 "/>
<polygon fill="none" stroke="#231F20" points="482.549,246.211 454.526,230.644 479.392,214.541 "/>
<polygon fill="none" stroke="#231F20" points="802.174,560.325 834.005,564.117 817.09,588.438 "/>
<polygon fill="none" stroke="#231F20" points="831.74,443.807 859.818,428.34 860.245,457.963 "/>
<polygon fill="none" stroke="#231F20" points="800.494,327.935 817.086,300.507 832.258,325.953 "/>
<polygon fill="none" stroke="#231F20" points="712.902,244.896 714.395,209.991 740.602,223.807 "/>
<ellipse fill="none" stroke="#231F20" cx="506.27" cy="399.792" rx="8.562" ry="8.215"/>
<ellipse fill="none" stroke="#231F20" cx="515.169" cy="385.825" rx="8.887" ry="8.54"/>
<ellipse fill="none" stroke="#231F20" cx="525.948" cy="372.759" rx="8.724" ry="8.54"/>
<ellipse fill="none" stroke="#231F20" cx="539.669" cy="361.08" rx="8.887" ry="8.702"/>
<ellipse fill="none" stroke="#231F20" cx="555.023" cy="351.196" rx="9.049" ry="9.026"/>
<ellipse fill="none" stroke="#231F20" cx="572.582" cy="344.909" rx="9.049" ry="8.864"/>
<ellipse fill="none" stroke="#231F20" cx="590.71" cy="340.663" rx="8.887" ry="8.702"/>
<ellipse fill="none" stroke="#231F20" cx="701.11" cy="462.797" rx="12.658" ry="13.278"/>
<ellipse fill="none" stroke="#231F20" cx="692.563" cy="487.99" rx="13.431" ry="13.572"/>
<ellipse fill="none" stroke="#231F20" cx="677.903" cy="510.379" rx="13.594" ry="13.084"/>
<path fill="none" stroke="#231F20" d="M672.022,528.39c0,7.499-6.157,13.573-13.757,13.573c-7.598,0-13.754-6.074-13.754-13.573
	c0-7.493,6.156-13.567,13.754-13.567C665.865,514.822,672.022,520.896,672.022,528.39z"/>
<ellipse fill="none" stroke="#231F20" cx="634.412" cy="539.589" rx="12.62" ry="12.76"/>
<path fill="none" stroke="#231F20" d="M712.146,455.688c-0.324-45.115-20.448-54.528-20.448-54.528s8.438,17.203,4.544,49.659"/>
<path fill="none" stroke="#231F20" d="M599.597,340.663c0,0,7.063,0.453,11.607-1.17s5.192,3.246,10.062,2.272
	s10.063,4.869,14.931,5.518s12.333-2.921,21.097,8.439s8.439,0.973,16.554,16.553c0,0,8.763-0.324,12.333,15.58
	c0,0,4.87,7.14,5.519,13.307"/>
<path fill="none" stroke="#231F20" d="M510.392,407.32c0,0-26.108,63.122,16.854,99.144c0,0,35.361,35.692,94.848,28.752"/>
<path fill="none" stroke="#231F20" d="M497.708,399.792c0,0-27.305,59.743,6.735,104.358c0,0,42.302,59.817,125.914,47.259"/>
<line fill="none" stroke="#231F20" x1="597.308" y1="536.207" x2="597.308" y2="552.07"/>
<line fill="none" stroke="#231F20" x1="558.972" y1="526.623" x2="550.049" y2="540.173"/>
<line fill="none" stroke="#231F20" x1="540.465" y1="516.709" x2="530.551" y2="528.937"/>
<line fill="none" stroke="#231F20" x1="523.611" y1="502.828" x2="511.713" y2="512.743"/>
<line fill="none" stroke="#231F20" x1="511.053" y1="486.305" x2="497.503" y2="493.244"/>
<line fill="none" stroke="#231F20" x1="504.112" y1="469.78" x2="490.563" y2="473.416"/>
<line fill="none" stroke="#231F20" x1="487.258" y1="457.883" x2="502.46" y2="456.23"/>
<line fill="none" stroke="#231F20" x1="487.588" y1="442.681" x2="502.791" y2="442.351"/>
<line fill="none" stroke="#231F20" x1="488.911" y1="428.801" x2="503.452" y2="430.454"/>
<line fill="none" stroke="#231F20" x1="492.546" y1="414.599" x2="506.756" y2="418.234"/>
<ellipse fill="none" stroke="#231F20" cx="602.266" cy="445.646" rx="68.133" ry="68.504"/>
<line fill="none" stroke="#231F20" x1="541.801" y1="224.009" x2="569.426" y2="336.041"/>
<line fill="none" stroke="#231F20" x1="574.499" y1="354.032" x2="581.191" y2="380.014"/>
<line fill="none" stroke="#231F20" x1="619.772" y1="379.225" x2="662.791" y2="225.682"/>
<line fill="none" stroke="#231F20" x1="691.813" y1="354.817" x2="651.266" y2="397.333"/>
<line fill="none" stroke="#231F20" x1="741.416" y1="302.065" x2="737.479" y2="306.002"/>
<line fill="none" stroke="#231F20" x1="668.586" y1="430.794" x2="823.299" y2="386.31"/>
<line fill="none" stroke="#231F20" x1="667.799" y1="465.831" x2="821.724" y2="511.891"/>
<line fill="none" stroke="#231F20" x1="646.385" y1="498.19" x2="662.732" y2="515.485"/>
<line fill="none" stroke="#231F20" x1="671.336" y1="524.52" x2="756.376" y2="615.03"/>
<line fill="none" stroke="#231F20" x1="614.21" y1="513.204" x2="619.94" y2="535.267"/>
<polyline fill="none" stroke="#231F20" points="582.691,511.484 577.148,532.241 572.191,547.773 "/>
<line fill="none" stroke="#231F20" x1="553.466" y1="494.007" x2="535.128" y2="513.204"/>
<line fill="none" stroke="#231F20" x1="505.616" y1="473.09" x2="536.561" y2="465.354"/>
<line fill="none" stroke="#231F20" x1="374.102" y1="384.554" x2="491.577" y2="417.791"/>
<line fill="none" stroke="#231F20" x1="506.19" y1="421.802" x2="535.702" y2="429.825"/>
<line fill="none" stroke="#231F20" x1="435.706" y1="281.691" x2="519.371" y2="367.362"/>
<line fill="none" stroke="#231F20" x1="531.405" y1="379.396" x2="551.175" y2="400.313"/>
<ellipse fill="none" stroke="#231F20" cx="580.687" cy="569.5" rx="21.776" ry="18.194"/>
<path fill="none" stroke="#231F20" d="M583.839,587.694c0,0,74.783-0.573,101.43-26.074"/>
<path fill="none" stroke="#231F20" d="M494.443,653.021c0,0-1.433-10.027,7.163-18.337c0,0-1.719-10.028,8.31-12.894
	c0,0-2.292-13.181,19.77-13.754c0,0,9.456,7.163,24.928,6.304c0,0,15.472,8.597,30.085,3.152c0,0,8.882,4.011,17.191,0.286
	c0,0,10.889-2.292,20.344,0c0,0,2.006-2.866,14.04-2.866c0,0,16.618-1.433,20.057-4.584c0,0,19.484-10.028,25.215-7.163"/>
<path fill="none" stroke="#231F20" d="M530.833,642.419c0,0,5.443-10.314,25.5,1.433c0,0,13.467-2.864,21.49,2.006
	c0,0,8.309,1.146,14.04-1.72c0,0,20.056-2.006,31.231,0c0,0,22.922-0.572,29.226-4.011c0,0,13.288-2.918,16.619-4.584
	c2.292-1.146,5.443-3.725,13.18-4.298c0,0,4.87-3.725,8.022-2.865"/>
<path fill="none" stroke="#231F20" d="M651.747,554.743"/>
<path fill="none" stroke="#231F20" d="M365.508,458.758c0,0,12.608-48.996,65.042-58.165"/>
<path fill="none" stroke="#231F20" d="M376.969,519.215l42.119-14.04c0,0-6.876-59.597,54.153-92.261"/>
<path fill="none" stroke="#231F20" d="M438.858,495.72c0,0,6.876-50.142,41.833-48.709c0,0,16.905,0-3.725,38.681"/>
<path fill="none" stroke="#231F20" d="M457.5,513.5c0,0,10,36.5,67,65.5"/>
<text transform="matrix(1.0039 0 0 1 699.3926 468.4609)" font-family="'MyriadPro-Regular'" font-size="11.9848">V</text>
<text transform="matrix(1.0039 0 0 1 688.666 491.0391)" font-family="'MyriadPro-Regular'" font-size="11.9848">IV</text>
<text transform="matrix(1.0039 0 0 1 673.8994 515.002)" font-family="'MyriadPro-Regular'" font-size="11.9848">III</text>
<text transform="matrix(1.0039 0 0 1 653.2617 534.6299)" font-family="'MyriadPro-Regular'" font-size="11.9848">II</text>
<text transform="matrix(1.0039 0 0 1 633.6074 543.9238)" font-family="'MyriadPro-Regular'" font-size="11.9848">I</text>
<text transform="matrix(1.0039 0 0 1 587.0039 343.7925)" font-family="'MyriadPro-Regular'" font-size="11.9848">1</text>
<text transform="matrix(1.0039 0 0 1 568.9487 349.0635)" font-family="'MyriadPro-Regular'" font-size="11.9848">2</text>
<text transform="matrix(1.0039 0 0 1 552.5122 354.3506)" font-family="'MyriadPro-Regular'" font-size="11.9848">3</text>
<text transform="matrix(1.0039 0 0 1 536.5386 364.7534)" font-family="'MyriadPro-Regular'" font-size="11.9848">4</text>
<text transform="matrix(1.0039 0 0 1 522.957 376.5376)" font-family="'MyriadPro-Regular'" font-size="11.9848">5</text>
<text transform="matrix(1.0039 0 0 1 511.731 389.9932)" font-family="'MyriadPro-Regular'" font-size="11.9848">6</text>
<text transform="matrix(1.0039 0 0 1 502.375 405.3071)" font-family="'MyriadPro-Regular'" font-size="11.9848">7</text>
<text transform="matrix(1.0039 0 0 1 498.4951 416.2866)" font-family="'MyriadPro-Regular'" font-size="11.9848">1</text>
<text transform="matrix(1.0039 0 0 1 495.7852 427.3682)" font-family="'MyriadPro-Regular'" font-size="11.9848">2</text>
<text transform="matrix(1.0039 0 0 1 493.168 440.332)" font-family="'MyriadPro-Regular'" font-size="11.9848">3</text>
<text transform="matrix(1.0039 0 0 1 491.7808 453.8066)" font-family="'MyriadPro-Regular'" font-size="11.9848">4</text>
<text transform="matrix(1.0039 0 0 1 493.7847 469.1953)" font-family="'MyriadPro-Regular'" font-size="11.9848">5</text>
<text transform="matrix(1.0039 0 0 1 498.6802 485.9551)" font-family="'MyriadPro-Regular'" font-size="11.9848">6</text>
<text transform="matrix(1.0039 0 0 1 509.2842 503.5723)" font-family="'MyriadPro-Regular'" font-size="11.9848">7</text>
<text transform="matrix(1 0 0 1 522.5825 517.667)" font-family="'MyriadPro-Regular'" font-size="12">8</text>
<text transform="matrix(1 0 0 1 542.5425 533.0215)" font-family="'MyriadPro-Regular'" font-size="12">9</text>
<text transform="matrix(1 0 0 1 557.8965 542.2334)" font-family="'MyriadPro-Regular'" font-size="12">10</text>
<text transform="matrix(1 0 0 1 580.1602 549.1426)" font-family="'MyriadPro-Regular'" font-size="12">11</text>
<text transform="matrix(1 0 0 1 600.8877 547.6074)" font-family="'MyriadPro-Regular'" font-size="12">12</text>
<text transform="matrix(1 0 0 1 583.2612 237.7959)" font-family="'MyriadPro-Regular'" font-size="12">VERTEX</text>
<text transform="matrix(0.9999 0.0168 -0.0168 0.9999 583.7632 258.4312)" font-family="'MyriadPro-Regular'" font-size="12">CORTEX</text>
<text transform="matrix(0.9995 0.0302 -0.0302 0.9995 568.8042 281.4092)" font-family="'MyriadPro-Regular'" font-size="12">OCCIP FRONT</text>
<text transform="matrix(0.9999 0.0125 -0.0125 0.9999 575.4219 302.8457)" font-family="'MyriadPro-Regular'" font-size="12">DIENCEPH.</text>
<text transform="matrix(0.9997 0.0233 -0.0233 0.9997 576.1211 324.2813)" font-family="'MyriadPro-Regular'" font-size="12">HYPOPHY.</text>
<text transform="matrix(0.3069 -0.9518 0.9518 0.3069 657.9678 295.2241)" font-family="'MyriadPro-Regular'" font-size="12">FONT</text>
<text transform="matrix(0.3827 -0.9239 0.9239 0.3827 685.6064 271.0186)" font-family="'MyriadPro-Regular'" font-size="12"> NEZ. </text>
<text transform="matrix(0.5335 -0.8458 0.8458 0.5335 669.7041 340.2671)" font-family="'MyriadPro-Regular'" font-size="12">MAXIL.</text>
<text transform="matrix(0.4886 -0.8725 0.8725 0.4886 694.1289 298.5991)" font-family="'MyriadPro-Regular'" font-size="12">SUPER.</text>
<text transform="matrix(0.6143 -0.7891 0.7891 0.6143 681.917 348.6387)" font-family="'MyriadPro-Regular'" font-size="12">MAXIL </text>
<text transform="matrix(0.5483 -0.8363 0.8363 0.5483 711.0244 310.3022)" font-family="'MyriadPro-Regular'" font-size="12">INF.</text>
<text transform="matrix(0.6958 -0.7183 0.7183 0.6958 703.2705 348.3306)" font-family="'MyriadPro-Regular'" font-size="12">TYMPAN</text>
<text transform="matrix(0.6988 -0.7154 0.7154 0.6988 762.1846 277.6265)"><tspan x="0" y="0" font-family="'MyriadPro-Regular'" font-size="12">CONDUIT </tspan><tspan x="0" y="11" font-family="'MyriadPro-Regular'" font-size="12">AUDITIF</tspan><tspan x="0" y="22" font-family="'MyriadPro-Regular'" font-size="12">EXTERNE</tspan></text>
<text transform="matrix(0.7773 -0.6291 0.6291 0.7773 694.7861 380.1899)" font-family="'MyriadPro-Regular'" font-size="12">PHARYNX- LARYNX</text>
<text transform="matrix(0.8619 -0.507 0.507 0.8619 726.1748 371.4097)" font-family="'MyriadPro-Regular'" font-size="12">PAROTIDE</text>
<text transform="matrix(0.8716 -0.4903 0.4903 0.8716 705.6973 401.0791)" font-family="'MyriadPro-Regular'" font-size="12">ORGANES GENITAUX</text>
<text transform="matrix(0.8809 -0.4733 0.4733 0.8809 754.4248 385.8408)" font-family="'MyriadPro-Regular'" font-size="12">EXTERNES</text>
<text transform="matrix(0.9502 -0.3117 0.3117 0.9502 740.5049 404.8457)" font-family="'MyriadPro-Regular'" font-size="12">RECTUM</text>
<text transform="matrix(0.9974 -0.0717 0.0717 0.9974 742.625 437.2681)" font-family="'MyriadPro-Regular'" font-size="12">MEMBRE</text>
<text transform="matrix(0.9879 0.1552 -0.1552 0.9879 745.1836 473.0586)" font-family="'MyriadPro-Regular'" font-size="12">INFERIEUR</text>
<text transform="matrix(0.9407 0.3393 -0.3393 0.9407 727.292 498.583)" font-family="'MyriadPro-Regular'" font-size="12">UTERUS</text>
<text transform="matrix(0.9252 0.3794 -0.3794 0.9252 710.002 509.1611)" font-family="'MyriadPro-Regular'" font-size="12">OU PROSTATE</text>
<text transform="matrix(0.8435 0.5372 -0.5372 0.8435 717.6279 532.084)" font-family="'MyriadPro-Regular'" font-size="12">OVAIRE</text>
<text transform="matrix(0.7992 0.6011 -0.6011 0.7992 694.4102 531.1553)" font-family="'MyriadPro-Regular'" font-size="12">OU TESTICULE</text>
<text transform="matrix(0.6945 0.7195 -0.7195 0.6945 706.5605 556.7568)" font-family="'MyriadPro-Regular'" font-size="12">VESSIE</text>
<text transform="matrix(0.6412 0.7674 -0.7674 0.6412 684.918 554.5771)" font-family="'MyriadPro-Regular'" font-size="12">URETERE</text>
<text transform="matrix(0.5376 0.8432 -0.8432 0.5376 678.8516 582.6152)" font-family="'MyriadPro-Regular'" font-size="12">COECUM</text>
<path fill="none" d="M542.354,592.267c0,0,59.146,26.023,131.698-4.732"/>
<text transform="matrix(0.9419 0.3358 -0.3358 0.9419 544.9155 593.2891)"><tspan x="0" y="0" font-family="'MyriadPro-Regular'" font-size="12"> </tspan><tspan x="3.052" y="-0.009" font-family="'MyriadPro-Regular'" font-size="12" rotate="-1.572"> </tspan><tspan x="6.109" y="-0.1" font-family="'MyriadPro-Regular'" font-size="12" rotate="-2.926"> </tspan><tspan x="9.159" y="-0.261" font-family="'MyriadPro-Regular'" font-size="12" rotate="-4.158"> </tspan><tspan x="12.21" y="-0.487" font-family="'MyriadPro-Regular'" font-size="12" rotate="-5.319"> </tspan><tspan x="15.268" y="-0.778" font-family="'MyriadPro-Regular'" font-size="12" rotate="-6.433"> </tspan><tspan x="18.293" y="-1.125" font-family="'MyriadPro-Regular'" font-size="12" rotate="-7.5"> </tspan><tspan x="21.322" y="-1.528" font-family="'MyriadPro-Regular'" font-size="12" rotate="-8.545"> </tspan><tspan x="24.361" y="-1.979" font-family="'MyriadPro-Regular'" font-size="12" rotate="-9.886">J</tspan><tspan x="29.241" y="-2.826" font-family="'MyriadPro-Regular'" font-size="12" rotate="-11.746">E</tspan><tspan x="35.524" y="-4.154" font-family="'MyriadPro-Regular'" font-size="12" rotate="-13.573">J</tspan><tspan x="40.353" y="-5.298" font-family="'MyriadPro-Regular'" font-size="12" rotate="-15.678">U</tspan><tspan x="48.318" y="-7.545" font-family="'MyriadPro-Regular'" font-size="12" rotate="-18.307">N</tspan><tspan x="56.302" y="-10.195" font-family="'MyriadPro-Regular'" font-size="12" rotate="-21.004">O</tspan><tspan x="64.485" y="-13.396" font-family="'MyriadPro-Regular'" font-size="12" rotate="-22.861"> </tspan><tspan x="67.302" y="-14.582" font-family="'MyriadPro-Regular'" font-size="12" rotate="-23.995">-</tspan><tspan x="71.136" y="-16.301" font-family="'MyriadPro-Regular'" font-size="12" rotate="-25.13"> </tspan><tspan x="73.895" y="-17.599" font-family="'MyriadPro-Regular'" font-size="12" rotate="-26.133">I</tspan><tspan x="76.949" y="-19.083" font-family="'MyriadPro-Regular'" font-size="12" rotate="-27.627">L</tspan><tspan x="82.43" y="-21.962" font-family="'MyriadPro-Regular'" font-size="12" rotate="-29.59">E</tspan><tspan x="88.013" y="-25.116" font-family="'MyriadPro-Regular'" font-size="12" rotate="-31.94">O</tspan><tspan x="95.457" y="-29.775" font-family="'MyriadPro-Regular'" font-size="12" rotate="-34.578">N</tspan></text>
<path fill="none" d="M534.861,604.096c0,0,67.82,27.996,138.796-4.731"/>
<text transform="matrix(0.9524 0.305 -0.305 0.9524 540.1753 606.0117)"><tspan x="0" y="0" font-family="'MyriadPro-Regular'" font-size="12"> </tspan><tspan x="3.064" y="-0.006" font-family="'MyriadPro-Regular'" font-size="12" rotate="-1.147"> </tspan><tspan x="6.1" y="-0.072" font-family="'MyriadPro-Regular'" font-size="12" rotate="-2.184"> </tspan><tspan x="9.173" y="-0.193" font-family="'MyriadPro-Regular'" font-size="12" rotate="-3.177"> </tspan><tspan x="12.214" y="-0.366" font-family="'MyriadPro-Regular'" font-size="12" rotate="-4.123"> </tspan><tspan x="15.265" y="-0.591" font-family="'MyriadPro-Regular'" font-size="12" rotate="-5.044"> </tspan><tspan x="18.311" y="-0.863" font-family="'MyriadPro-Regular'" font-size="12" rotate="-5.948"> </tspan><tspan x="21.383" y="-1.151" font-family="'MyriadPro-Regular'" font-size="12" rotate="-7.629">D</tspan><tspan x="29.8" y="-2.303" font-family="'MyriadPro-Regular'" font-size="12" rotate="-9.84">R</tspan><tspan x="36.678" y="-3.49" font-family="'MyriadPro-Regular'" font-size="12" rotate="-12.092">O</tspan><tspan x="45.255" y="-5.377" font-family="'MyriadPro-Regular'" font-size="12" rotate="-13.845">I</tspan><tspan x="48.541" y="-6.174" font-family="'MyriadPro-Regular'" font-size="12" rotate="-15.28">T</tspan><tspan x="54.791" y="-7.909" font-family="'MyriadPro-Regular'" font-size="12" rotate="-16.685"> </tspan><tspan x="57.718" y="-8.791" font-family="'MyriadPro-Regular'" font-size="12" rotate="-17.593"> </tspan><tspan x="60.636" y="-9.72" font-family="'MyriadPro-Regular'" font-size="12" rotate="-18.509"> </tspan><tspan x="63.529" y="-10.665" font-family="'MyriadPro-Regular'" font-size="12" rotate="-20.058">V</tspan><tspan x="70.306" y="-13.158" font-family="'MyriadPro-Regular'" font-size="12" rotate="-22.156">E</tspan><tspan x="76.259" y="-15.586" font-family="'MyriadPro-Regular'" font-size="12" rotate="-24.255">R</tspan><tspan x="82.612" y="-18.465" font-family="'MyriadPro-Regular'" font-size="12" rotate="-26.397">T</tspan><tspan x="88.383" y="-21.361" font-family="'MyriadPro-Regular'" font-size="12" rotate="-27.982">I</tspan><tspan x="91.399" y="-22.937" font-family="'MyriadPro-Regular'" font-size="12" rotate="-29.761">C</tspan><tspan x="97.893" y="-26.658" font-family="'MyriadPro-Regular'" font-size="12" rotate="-32.297">A</tspan><tspan x="104.517" y="-30.876" font-family="'MyriadPro-Regular'" font-size="12" rotate="-34.637">L</tspan></text>
<path fill="none" d="M525.004,628.937c0,0,81.622,30.756,157.723-5.126"/>
<text transform="matrix(0.9636 0.2675 -0.2675 0.9636 534.8159 632.0566)"><tspan x="0" y="0" font-family="'MyriadPro-Regular'" font-size="12"> </tspan><tspan x="3.063" y="-0.004" font-family="'MyriadPro-Regular'" font-size="12" rotate="-0.81"> </tspan><tspan x="6.111" y="-0.051" font-family="'MyriadPro-Regular'" font-size="12" rotate="-1.575"> </tspan><tspan x="9.18" y="-0.138" font-family="'MyriadPro-Regular'" font-size="12" rotate="-2.322"> </tspan><tspan x="12.224" y="-0.244" font-family="'MyriadPro-Regular'" font-size="12" rotate="-3.56">C</tspan><tspan x="19.708" y="-0.708" font-family="'MyriadPro-Regular'" font-size="12" rotate="-5.428">O</tspan><tspan x="28.441" y="-1.564" font-family="'MyriadPro-Regular'" font-size="12" rotate="-7.124">L</tspan><tspan x="34.57" y="-2.318" font-family="'MyriadPro-Regular'" font-size="12" rotate="-8.829">O</tspan><tspan x="43.252" y="-3.678" font-family="'MyriadPro-Regular'" font-size="12" rotate="-10.825">N</tspan><tspan x="51.511" y="-5.297" font-family="'MyriadPro-Regular'" font-size="12" rotate="-12.185"> </tspan><tspan x="54.507" y="-5.947" font-family="'MyriadPro-Regular'" font-size="12" rotate="-12.922"> </tspan><tspan x="57.468" y="-6.629" font-family="'MyriadPro-Regular'" font-size="12" rotate="-13.658"> </tspan><tspan x="60.455" y="-7.344" font-family="'MyriadPro-Regular'" font-size="12" rotate="-14.837">T</tspan><tspan x="66.715" y="-9.005" font-family="'MyriadPro-Regular'" font-size="12" rotate="-16.533">R</tspan><tspan x="73.416" y="-10.994" font-family="'MyriadPro-Regular'" font-size="12" rotate="-18.464">A</tspan><tspan x="80.851" y="-13.481" font-family="'MyriadPro-Regular'" font-size="12" rotate="-20.644">N</tspan><tspan x="88.723" y="-16.475" font-family="'MyriadPro-Regular'" font-size="12" rotate="-22.709">S</tspan><tspan x="94.661" y="-18.96" font-family="'MyriadPro-Regular'" font-size="12" rotate="-24.664">V</tspan><tspan x="101.192" y="-21.979" font-family="'MyriadPro-Regular'" font-size="12" rotate="-26.667">E</tspan><tspan x="106.933" y="-24.867" font-family="'MyriadPro-Regular'" font-size="12" rotate="-28.696">R</tspan><tspan x="113.054" y="-28.232" font-family="'MyriadPro-Regular'" font-size="12" rotate="-30.778">S</tspan><tspan x="118.578" y="-31.533" font-family="'MyriadPro-Regular'" font-size="12" rotate="-32.818">E</tspan></text>
<path fill="none" d="M521.061,655.75c0,0,93.846,33.121,173.89-9.069"/>
<text transform="matrix(0.9693 0.2457 -0.2457 0.9693 533.4087 659.374)"><tspan x="0" y="0" font-family="'MyriadPro-Regular'" font-size="12"> </tspan><tspan x="3.046" y="-0.002" font-family="'MyriadPro-Regular'" font-size="12" rotate="-0.688"> </tspan><tspan x="6.109" y="-0.044" font-family="'MyriadPro-Regular'" font-size="12" rotate="-1.354"> </tspan><tspan x="9.168" y="-0.119" font-family="'MyriadPro-Regular'" font-size="12" rotate="-2.001"> </tspan><tspan x="12.234" y="-0.209" font-family="'MyriadPro-Regular'" font-size="12" rotate="-3.089">C</tspan><tspan x="19.7" y="-0.611" font-family="'MyriadPro-Regular'" font-size="12" rotate="-4.733">O</tspan><tspan x="28.448" y="-1.358" font-family="'MyriadPro-Regular'" font-size="12" rotate="-6.238">L</tspan><tspan x="34.6" y="-2.021" font-family="'MyriadPro-Regular'" font-size="12" rotate="-7.758">O</tspan><tspan x="43.304" y="-3.217" font-family="'MyriadPro-Regular'" font-size="12" rotate="-9.536">N</tspan><tspan x="51.593" y="-4.643" font-family="'MyriadPro-Regular'" font-size="12" rotate="-10.748"> </tspan><tspan x="54.583" y="-5.214" font-family="'MyriadPro-Regular'" font-size="12" rotate="-11.402"> </tspan><tspan x="57.582" y="-5.822" font-family="'MyriadPro-Regular'" font-size="12" rotate="-12.067"> </tspan><tspan x="60.597" y="-6.446" font-family="'MyriadPro-Regular'" font-size="12" rotate="-13.279">A</tspan><tspan x="68.229" y="-8.265" font-family="'MyriadPro-Regular'" font-size="12" rotate="-14.901">S</tspan><tspan x="74.45" y="-9.92" font-family="'MyriadPro-Regular'" font-size="12" rotate="-16.536">C</tspan><tspan x="81.62" y="-12.063" font-family="'MyriadPro-Regular'" font-size="12" rotate="-18.226">E</tspan><tspan x="87.707" y="-14.058" font-family="'MyriadPro-Regular'" font-size="12" rotate="-20.088">N</tspan><tspan x="95.617" y="-16.959" font-family="'MyriadPro-Regular'" font-size="12" rotate="-22.306">D</tspan><tspan x="103.467" y="-20.197" font-family="'MyriadPro-Regular'" font-size="12" rotate="-24.535">A</tspan><tspan x="110.618" y="-23.465" font-family="'MyriadPro-Regular'" font-size="12" rotate="-26.846">N</tspan><tspan x="118.112" y="-27.29" font-family="'MyriadPro-Regular'" font-size="12" rotate="-29.038">T</tspan></text>
<text transform="matrix(1 0 0 1 470.9858 526.0225)" font-family="'MyriadPro-Regular'" font-size="12">PYLORE</text>
<text transform="matrix(1 0 0 1 440.6245 576.4932)" font-family="'MyriadPro-Regular'" font-size="12">FOIE</text>
<text transform="matrix(0.9258 -0.3779 0.3779 0.9258 403.917 529.8477)" font-family="'MyriadPro-Regular'" font-size="12">DIAPHRAGME</text>
<text transform="matrix(0.8683 -0.4961 0.4961 0.8683 404.5205 556.6475)"><tspan x="0" y="0" font-family="'MyriadPro-Regular'" font-size="12">VESICULE</tspan><tspan x="0" y="11" font-family="'MyriadPro-Regular'" font-size="12">BILIAIRE</tspan></text>
<text transform="matrix(0.5441 -0.839 0.839 0.5441 474.7471 630.8477)"><tspan x="0" y="0" font-family="'MyriadPro-Regular'" font-size="12">TETE DU </tspan><tspan x="0" y="11" font-family="'MyriadPro-Regular'" font-size="12">PANCREAS</tspan></text>
<path fill="none" d="M398.04,504.335c0,0-5.126-55.203,41.008-84.776"/>
<text transform="matrix(-3.940304e-004 -1 1 -3.940304e-004 397.8701 500.6533)"><tspan x="0" y="0" font-family="'MyriadPro-Regular'" font-size="12"> </tspan><tspan x="3.071" y="0.01" font-family="'MyriadPro-Regular'" font-size="12" rotate="1.86"> </tspan><tspan x="6.135" y="0.118" font-family="'MyriadPro-Regular'" font-size="12" rotate="3.564"> </tspan><tspan x="9.189" y="0.315" font-family="'MyriadPro-Regular'" font-size="12" rotate="5.197"> </tspan><tspan x="12.223" y="0.599" font-family="'MyriadPro-Regular'" font-size="12" rotate="6.792"> </tspan><tspan x="15.265" y="0.929" font-family="'MyriadPro-Regular'" font-size="12" rotate="9.386">P</tspan><tspan x="22.068" y="2.036" font-family="'MyriadPro-Regular'" font-size="12" rotate="13.544">O</tspan><tspan x="30.617" y="4.125" font-family="'MyriadPro-Regular'" font-size="12" rotate="18.297">U</tspan><tspan x="38.504" y="6.708" font-family="'MyriadPro-Regular'" font-size="12" rotate="23.76">M</tspan><tspan x="47.766" y="10.848" font-family="'MyriadPro-Regular'" font-size="12" rotate="29.713">O</tspan><tspan x="55.385" y="15.234" font-family="'MyriadPro-Regular'" font-size="12" rotate="35.396">N</tspan></text>
<path fill="none" d="M436.682,491.322c0,0,2.76-35.487,38.642-62.694"/>
<text transform="matrix(0.1821 -0.9833 0.9833 0.1821 437.0122 488.7305)"><tspan x="0" y="0" font-family="'MyriadPro-Regular'" font-size="12"> </tspan><tspan x="3.053" y="0.013" font-family="'MyriadPro-Regular'" font-size="12" rotate="2.507"> </tspan><tspan x="6.098" y="0.113" font-family="'MyriadPro-Regular'" font-size="12" rotate="5.87">T</tspan><tspan x="12.563" y="0.792" font-family="'MyriadPro-Regular'" font-size="12" rotate="10.182">R</tspan><tspan x="19.423" y="2.029" font-family="'MyriadPro-Regular'" font-size="12" rotate="14.671">A</tspan><tspan x="27.015" y="4.047" font-family="'MyriadPro-Regular'" font-size="12" rotate="19.188">C</tspan><tspan x="34.074" y="6.508" font-family="'MyriadPro-Regular'" font-size="12" rotate="23.767">H</tspan><tspan x="41.69" y="9.921" font-family="'MyriadPro-Regular'" font-size="12" rotate="27.976">E</tspan><tspan x="47.365" y="12.956" font-family="'MyriadPro-Regular'" font-size="12" rotate="31.574">E</tspan></text>
<text transform="matrix(0.4903 -0.8716 0.8716 0.4903 460.5811 489.8525)" font-family="'MyriadPro-Regular'" font-size="12">COUER</text>
<text transform="matrix(0.7996 -0.6005 0.6005 0.7996 379.9365 418.9707)" font-family="'MyriadPro-Regular'" font-size="12">SEIN</text>
<text transform="matrix(0.898 0.44 -0.44 0.898 406.6123 353.9414)" font-family="'MyriadPro-Regular'" font-size="12">MEMBRE</text>
<text transform="matrix(0.9629 0.2697 -0.2697 0.9629 400.1025 384.3975)" font-family="'MyriadPro-Regular'" font-size="12">SUPERIEUR</text>
<text transform="matrix(0.8195 0.5731 -0.5731 0.8195 422.3672 326.7969)" font-family="'MyriadPro-Regular'" font-size="12">THYROIDE</text>
<text transform="matrix(0.7049 0.7093 -0.7093 0.7049 464.4385 330.1973)" font-family="'MyriadPro-Regular'" font-size="12">LANGUE</text>
<text transform="matrix(0.6985 0.7156 -0.7156 0.6985 456.0547 293.2607)" font-family="'MyriadPro-Regular'" font-size="12">FACE</text>
<text transform="matrix(0.5433 0.8395 -0.8395 0.5433 495.9463 303.1484)" font-family="'MyriadPro-Regular'" font-size="12">NUQUE</text>
<text transform="matrix(0.2428 0.9701 -0.9701 0.2428 537.6475 253.1162)" font-family="'MyriadPro-Regular'" font-size="12">CERVELET</text>
<text transform="matrix(0.3386 0.9409 -0.9409 0.3386 516.2305 247.374)" font-family="'MyriadPro-Regular'" font-size="12">OREILLE INTERNE</text>
<text transform="matrix(0.4462 0.8949 -0.8949 0.4462 495.7793 254.5811)" font-family="'MyriadPro-Regular'" font-size="12">TRONC CEREBRAL</text>
<text transform="matrix(0.418 -0.9084 0.9084 0.418 657.8193 334.0088)" font-family="'MyriadPro-Regular'" font-size="12">OEIL</text>
<text transform="matrix(0.9627 -0.2705 0.2705 0.9627 635.2275 572.8096)" font-family="'MyriadPro-Regular'" font-size="12">REIN</text>
<text transform="matrix(1 0 0 1 585.0718 464.9102)" font-family="'MyriadPro-Regular'" font-size="60">D</text>
<text transform="matrix(1 0 0 1 477.8643 545.8838)" font-family="'MyriadPro-Regular'" font-size="12">DUODENUM</text>
<text transform="matrix(0.904 0 0 1 565.1548 565.1367)"><tspan x="0" y="0" font-family="'MyriadPro-Regular'" font-size="10.1157">SUR-</tspan><tspan x="0" y="12.139" font-family="'MyriadPro-Regular'" font-size="10.1157">RENALE</tspan></text>
</svg>
